<?xml version="1.0" encoding="UTF-8"?>
<svg id="Layer_1" data-name="Layer 1" xmlns="http://www.w3.org/2000/svg" viewBox="0 0 1080 1080">
  <defs>
    <style>
      .cls-1 {
        fill: #f0512e;
      }

      .cls-2 {
        fill: teal;
      }
    </style>
  </defs>
  <path class="cls-1" d="M1053.49,967.23c0,47.63-38.61,86.24-86.24,86.24s-86.24-38.61-86.24-86.24c0-8.57,1.25-16.85,3.59-24.67l-55.94-55.96h-.02l-.59-.59-288.32-288.33-135.24,135.24c1.65,6.66,2.54,13.64,2.54,20.83,0,47.63-38.61,86.23-86.24,86.23s-86.24-38.6-86.24-86.23,38.61-86.24,86.24-86.24c10.25,0,20.08,1.79,29.2,5.09l132.33-132.34-136.08-136.08c-8.04,2.48-16.6,3.81-25.45,3.81-47.63,0-86.24-38.61-86.24-86.24,0-30.87,16.22-57.95,40.61-73.19,6.42-4.02,13.42-7.22,20.84-9.44,7.85-2.36,16.18-3.62,24.79-3.62,47.63,0,86.24,38.61,86.24,86.24,0,8.61-1.26,16.94-3.62,24.79l136.32,136.32,288.36-288.36,56.62-56.63c-2.42-7.94-3.71-16.37-3.71-25.11,0-47.62,38.61-86.23,86.24-86.23s86.24,38.61,86.24,86.23-38.61,86.24-86.24,86.24c-8.73,0-17.18-1.31-25.12-3.72l-56.63,56.63-288.35,288.35,265.15,265.15,23.2,23.2,56.23,56.23c8.06-2.49,16.64-3.84,25.53-3.84,47.63,0,86.24,38.61,86.24,86.24Z"/>
  <path class="cls-2" d="M739.5,967.24c0,14.68-3.66,28.51-10.13,40.61-14.51,27.15-43.16,45.63-76.11,45.63s-61.6-18.49-76.11-45.63H188.84c-14.51,27.15-43.14,45.62-76.08,45.62-47.63,0-86.24-38.61-86.24-86.24,0-32.94,18.47-61.57,45.62-76.1V189.38c-27.15-14.53-45.62-43.14-45.62-76.08,0-47.63,38.61-86.24,86.24-86.24s86.23,38.61,86.23,86.24c0,32.94-18.47,61.57-45.63,76.1v701.72c15.07,8.06,27.46,20.45,35.49,35.52h388.32c14.53-27.16,43.16-45.63,76.1-45.63s61.57,18.47,76.1,45.63c6.47,12.1,10.14,25.92,10.14,40.61Z"/>
</svg>