<?xml version="1.0" encoding="UTF-8" standalone="no"?>
<!DOCTYPE svg PUBLIC "-//W3C//DTD SVG 1.1//EN" "http://www.w3.org/Graphics/SVG/1.1/DTD/svg11.dtd">
<svg width="100%" height="100%" viewBox="0 0 114 114" version="1.1" xmlns="http://www.w3.org/2000/svg" xmlns:xlink="http://www.w3.org/1999/xlink" xml:space="preserve" xmlns:serif="http://www.serif.com/" style="fill-rule:evenodd;clip-rule:evenodd;stroke-linejoin:round;stroke-miterlimit:2;">
    <g transform="matrix(1.391242,0,0,1.372184,-39.162844,-32.667141)">
        <circle cx="70" cy="65" r="39" style="fill:white;"/>
    </g>
    <g id="path20" transform="matrix(1.486532,0,0,1.486532,-28.73806,-28.202162)">
        <path d="M58.039,20.003C37.053,20.003 20.015,36.593 20.015,57.027C20.015,77.46 37.053,94.05 58.039,94.05C79.026,94.05 96.064,77.46 96.064,57.027C96.064,36.593 79.026,20.003 58.039,20.003ZM73.182,27.454C73.418,27.571 73.554,27.826 73.519,28.087C73.484,28.349 73.287,28.559 73.028,28.611C71.721,28.874 70.043,29.21 69.383,29.342C69.199,29.378 69.008,29.36 68.835,29.289C68.503,29.154 68.156,29.02 67.797,28.89C55.179,24.334 44.383,29.41 39.378,33.538C24.919,45.462 26.295,64.018 34.434,74.329C43.991,86.434 57.918,87.443 67.201,84.236C83.358,78.656 90.865,61.202 85.202,46.11C83.143,40.623 79.433,36.742 79.119,36.498C75.064,33.338 71.389,37.715 70.315,41.131C70.101,41.812 69.963,48.499 70.005,49.27C70.051,50.127 70.046,50.126 70.046,58.174C70.046,62.581 70.337,65.724 68.376,68.876C63.469,76.761 53.784,76.264 49.111,71.433C48.981,71.299 49.448,70.899 49.743,70.606C51.587,68.778 52.608,67.703 52.705,67.686C52.859,67.66 52.841,67.726 53.188,68.023C56.816,71.133 62.557,69.663 64.313,65.187C64.764,64.04 64.776,62.802 64.76,62.703C64.676,62.2 64.738,61.074 64.724,60.658C64.7,59.962 63.081,62.669 57.382,62.61C51.742,62.551 46.134,58.197 45.466,51.61C45.383,50.08 45.344,49.615 45.577,48.21C46.65,41.746 52.256,38.041 57.382,37.978C62.282,37.918 64.456,40.065 64.932,40.277C65.226,40.408 65.149,38.898 66.626,36.647C69.338,32.514 72.986,31.662 73.062,31.533C73.062,31.533 76.111,30.095 77.462,29.919C86.284,35.887 92.061,45.807 92.061,57.027C92.061,75.251 76.816,90.048 58.039,90.048C39.262,90.048 24.018,75.251 24.018,57.027C24.018,38.802 39.262,24.006 58.039,24.006C63.478,24.006 68.621,25.247 73.182,27.454ZM64.705,51.309C64.712,51.182 64.735,50.79 64.722,49.723C64.696,47.655 63.132,44.374 59.338,43.414C58.297,43.15 56.629,43.264 56.104,43.412C50.115,45.104 49.697,51.282 51.907,54.301C56.033,59.935 63.97,57.108 64.705,51.309Z" style="fill:rgb(113,11,2);"/>
    </g>
</svg>
