<?xml version="1.0" encoding="UTF-8"?>
<svg id="Layer_1" data-name="Layer 1" xmlns="http://www.w3.org/2000/svg" viewBox="0 0 113.92 113.92">
  <defs>
    <style>
      .cls-1 {
        fill: #ef3f2f;
      }

      .cls-2, .cls-3 {
        fill: #fff;
      }

      .cls-3, .cls-4 {
        stroke: #fff;
        stroke-miterlimit: 3.16;
        stroke-width: .66px;
      }

      .cls-4 {
        fill: #52bb70;
      }

      .cls-5 {
        fill: #038181;
      }
    </style>
  </defs>
  <path id="path20" class="cls-1" d="M111.78,51.89L62.03,2.15c-2.86-2.86-7.51-2.86-10.37,0l-10.33,10.33,13.1,13.1c3.05-1.03,6.54-.34,8.96,2.09,2.44,2.44,3.12,5.96,2.07,9.02l12.63,12.63c3.06-1.05,6.58-.37,9.02,2.07,3.41,3.41,3.41,8.93,0,12.35-3.41,3.41-8.94,3.41-12.35,0-2.56-2.57-3.2-6.33-1.9-9.49l-11.78-11.78v30.99c.83.41,1.62.96,2.31,1.65,3.41,3.41,3.41,8.93,0,12.35-3.41,3.41-8.94,3.41-12.35,0-3.41-3.41-3.41-8.94,0-12.35.84-.84,1.82-1.48,2.86-1.9v-31.28c-1.04-.43-2.01-1.06-2.86-1.9-2.58-2.58-3.21-6.37-1.88-9.54l-12.92-12.92L2.15,51.66c-2.87,2.87-2.87,7.51,0,10.38l49.74,49.74c2.86,2.86,7.51,2.86,10.38,0l49.51-49.51c2.86-2.87,2.86-7.51,0-10.38Z"/>
  <polygon class="cls-1" points="36.26 17.55 41.33 12.48 106.59 51.91 55.06 104.15 30.82 54.26 36.26 17.55"/>
  <g>
    <path id="path3377" class="cls-5" d="M17.4,41.11c1.71,1.16,3.33,2.06,4.9,2.76-.48.16-.95.35-1.42.6-.93.48-1.86,1.14-2.77,2.03,2.69.63,4.88.98,6.74,1.16-2.53.4-4.93,1.49-7.03,4.19,2.65.24,4.8.3,6.63.24-2.52.74-4.82,2.14-6.56,5.18,2.11-.1,3.9-.28,5.44-.51-2.13,1.17-3.95,2.93-5.04,5.99,2.05-.47,3.77-.96,5.25-1.45-1.51,1.19-2.76,2.83-3.54,5.25,1.38-.36,2.59-.72,3.69-1.08-.95,1.24-1.67,2.79-2.03,4.78,1.49-.61,2.78-1.2,3.91-1.77-1.05,1.33-1.84,2.99-2.17,5.18,2.09-.93,3.79-1.8,5.22-2.63-1.28,1.48-2.21,3.35-2.51,5.92,2.56-1.24,4.5-2.38,6.08-3.44-1.81,1.62-3.17,3.74-3.54,6.96,2.06-1,3.74-1.94,5.14-2.82-1.3,1.89-2.1,4.15-1.84,7.2,1.67-1.28,3.03-2.44,4.17-3.51-.88,1.71-1.33,3.72-1.04,6.26,1.1-.9,2.06-1.74,2.91-2.53-.35,1.53-.35,3.23.15,5.19,1.1-1.18,2.02-2.25,2.82-3.24-.4,1.65-.42,3.49.19,5.62,1.51-1.72,2.69-3.22,3.64-4.57-.55,1.88-.61,3.96.19,6.43,1.8-2.19,3.09-4.02,4.08-5.64-.96,2.22-1.3,4.71-.3,7.78,2.35-2.86,3.84-5.13,4.92-7.07.01,1.78.48,3.63,1.71,5.62,1.79-3.71,2.72-6.45,3.29-8.74.43,1.08,1.07,2.16,2,3.25.28-4.65,1.83-6.76,3.38-9.04-2.56,3.46-1.4,4.5-.63,6.01,1.23-4.08,3.4-8.84,3.6-11.23-.36,2.99.1,5.42.65,7.5-5.6,7.89-9.72,11.29-14.12,15.54,2.4-.28,4.93-.65,4.55.84l-1.19,3.59c1.29-1.25,2.5-2.71,4.32-2.46.5,1.32-.77,2.75-1.75,4.16,1.95-2.06,2.56-2.12,3.29-2.23,1.07,1.34.39,2.7.19,4.05,3.69-7.58,9.7-15.13,14.45-19.41,6.43-6.52,15.05-14.27,14.43-22.25l-2.78-12.28c1.45-5.05,2.57-10.11,1.77-15.15,8-6.19,15.49-9.19,23.06-12.77-.74.23-24.79,7.65-24.79,7.65-10.95-5.59-17.56,5.3-16.33,15.66.31,2.61-4.27,4.92-6.71,3.38-10.95-8.65-32.91-12.56-48.69-10.12h0s0,0,0,0Z"/>
    <path id="path3381" class="cls-2" d="M81.39,37.84v.12c-.03.54-.27,1.03-.72,1.48s-1.13.86-1.96,1.24l-.52.24.56.17c.28.09.41.21.47.33.07.13.08.29.04.51-.09.43-.41,1.02-.69,1.59l-.1.18.18.1c.67.39,1.07.75,1.29,1.08.21.32.26.61.21.9-.1.59-.65,1.23-1.1,1.9l-.09.12.09.13c.22.3.27.61.17,1-.1.38-.36.84-.78,1.33l-.11.13.1.14c.46.65.98,1.15,1.62,1.32.58.15,1.24-.06,1.94-.61.51.68,1.05,1.26,1.73,1.48.69.22,1.48,0,2.31-.74.48.41.99.63,1.47.69.53.07,1.11-.09,1.6-.17l.12-.4c-.49.08-1.22.19-1.67.14-.45-.06-.89-.23-1.35-.68l-.15-.16-.16.15c-.84.81-1.46.95-2.03.76-.57-.19-1.13-.76-1.66-1.49l-.14-.19-.18.16c-.71.63-1.25.76-1.73.64-.44-.12-.87-.51-1.28-1.05.36-.46.65-.9.76-1.33.11-.42.04-.84-.17-1.2.42-.61.98-1.24,1.11-1.98.07-.39,0-.81-.28-1.22-.24-.37-.67-.73-1.27-1.1.26-.51.55-1.03.65-1.53.06-.28.06-.55-.07-.8-.07-.14-.27-.19-.41-.29.71-.35,1.34-.72,1.78-1.16.47-.46.74-1.02.81-1.62.84-.42,1.8-.67,2.74-1,.96-.34,1.9-.77,2.57-1.59l-.35-.28c-.6.73-1.43,1.13-2.36,1.46-.94.33-1.96.58-2.87,1.05l-.12.06h0Z"/>
    <path id="path3385" class="cls-3" d="M84.58,36.05c.46.91.09,2.03-.82,2.49s-2.03.09-2.49-.82-.09-2.03.82-2.49,2.03-.09,2.49.82Z"/>
    <path id="path3389" class="cls-2" d="M88.74,32c-.51,2.68-1.14,2.37-1.88,3.15l-.12.13.11.15c1.33,1.77,2.79,1.8,4.04,2.06l-.03-.18.22-.17c-1.26-.25-2.55-.36-3.74-1.83.58-.49,1.31-.61,1.79-3.14l-.39-.18h0Z"/>
    <path id="path3393" class="cls-2" d="M24.85,47.66c3.69.32,9.21-.21,13.13.17,2.16.22,4.15.51,5.74.83,1.59.32,2.9.82,3.36.96.46.14.6-.1.2-.39-.4-.29-1.88-.68-3.49-1-1.61-.32-3.6-.61-5.77-.83-4.34-.43-9.14-.36-13.17.26h0Z"/>
    <path id="path3397" class="cls-2" d="M22.3,43.87c1.31-.32,3.56-.19,6.03-.09,2.47.1,5.25.36,7.82.67,2.58.31,4.63.69,6.27,1,1.61.4,2.49.74,2.7.63.03,0,.06-.02.1-.05.04-.03.1-.1.1-.2,0-.09-.05-.15-.08-.18-.03-.03-.05-.05-.08-.06-.11-.06-.25-.1-.46-.16-.41-.12-1.08-.26-1.9-.41-1.66-.31-4.03-.68-6.61-.99-2.58-.31-5.38-.58-7.87-.68-.82.09-5.12,0-6.04.54h0s0,0,0,0Z"/>
    <path id="path3401" class="cls-2" d="M24.43,52.1c4.35-.35,10.35-1.21,14.85-.78,2.43.24,4.62.6,6.29.95.84.18,1.55.35,2.1.51.54.15.91.36,1.07.38.34.05.47-.16.21-.39-.19-.17-.61-.26-1.16-.42-.56-.16-1.28-.33-2.13-.51-1.69-.35-3.9-.72-6.35-.96-4.89-.48-10.36-.32-14.89,1.22h0Z"/>
    <path id="path3405" class="cls-2" d="M23.31,56.76c2.81-1.42,9.91-1.77,13.01-1.72,5.03.11,10.01,1.01,12.96,1.91.33.1.56-.25.16-.41-2.93-1.21-8.03-1.81-13.1-1.93-5.07-.12-9.91.57-13.02,2.15h0Z"/>
    <path id="path3409" class="cls-2" d="M23.55,61.28c4.54-1.51,10.46-2.36,15.08-2.37,2.59,0,4.99.2,6.89.48,1.91.28,3.51.88,3.91,1.04s.71.02.22-.37c-.49-.39-2.14-.81-4.08-1.1s-4.35-.48-6.95-.48c-5.21-.01-10.77.71-15.08,2.81h0Z"/>
    <path id="path3413" class="cls-2" d="M26.53,63.72c-1.1.44-1.93,1.13-2.83,1.73,3.58-2.24,9.69-3.17,14-3.32,5.09-.15,9.85.78,12.34,1.64.39.13.4-.29.18-.4-2.51-1.18-7.4-1.83-12.54-1.68-3.86.11-7.86.72-11.15,2.03h0Z"/>
    <path id="path3417" class="cls-2" d="M25.57,68.45c3.83-1.59,9.22-3.2,13.49-3.36,4.3-.13,8.01.65,9.95,1.18.3.08.59-.23.14-.42-1.93-.8-5.73-1.33-10.09-1.2-4.36.13-9.17,1.23-13.48,3.79h0Z"/>
    <path id="path3421" class="cls-2" d="M30.44,69.85c-.79.37-1.08.7-1.8,1.16,2.56-1.15,6.88-2.5,9.46-2.86,3.35-.45,6.45-.14,8.38.35.37.09.41-.3.14-.41-1.96-.77-5.18-.83-8.58-.38-2.55.34-5.23,1.04-7.6,2.14h0Z"/>
    <path id="path3425" class="cls-2" d="M32.16,73.54c5.54-2.34,9.26-3.03,12.86-2.06.27.07.45-.3.14-.42-3.94-1.48-9.35.29-13,2.48h0Z"/>
    <path id="path3429" class="cls-2" d="M37.91,74.68c-1.69.69-2.87,1.73-4.1,2.97,3.98-2.88,5.95-3.45,10.01-3.57.46-.01.23-.42.02-.43-2.27-.17-4.24.34-5.93,1.03h0Z"/>
    <path id="path3433" class="cls-2" d="M39.28,77.77c-1.47.91-2.5,2.1-3.14,3.51,3.46-3.82,4.81-4.09,8.56-4.81.49-.1.15-.44-.05-.43-2.36.2-3.9.81-5.36,1.72h0Z"/>
    <path id="path3437" class="cls-2" d="M49.12,76.14c-2.41.91-4.85,2.49-6.91,4.04-2.05,1.55-3.58,3.37-4.23,4.82,2.96-3.49,3.65-3.83,4.49-4.47,2.02-1.53,4.15-2.8,6.81-3.99.24-.11.04-.48-.17-.4h0Z"/>
    <path id="path3441" class="cls-2" d="M51.38,77.32c-2.53,1.16-4.78,3.06-6.68,4.81-1.9,1.75-3.11,3.45-3.75,4.87,1.66-2.16,3.34-3.91,4.04-4.55,1.87-1.73,3.8-3.38,6.61-4.75.22-.11.16-.56-.22-.38h0Z"/>
    <path id="path3445" class="cls-2" d="M54.18,77.83c-2.16,1.52-4.26,3.45-6.03,5.25-1.77,1.8-2.86,3.43-3.33,4.96,1.8-2.74,2.94-3.95,3.63-4.66,1.75-1.78,3.47-3.27,6-5.2.3-.23-.14-.44-.26-.35h0Z"/>
    <path id="path3449" class="cls-2" d="M56.35,79.17c-4.31,3.11-6.32,6.66-7.24,9.64,1.85-3.76,3.32-6.02,7.52-9.3.27-.21-.01-.53-.28-.34h0Z"/>
    <path id="path3453" class="cls-2" d="M59.49,79.73c-4.35,3.1-5.62,7.34-5.8,9.8,1.48-4.48,2.98-7.27,6.07-9.46.31-.22.03-.56-.28-.34h0Z"/>
    <path id="path3457" class="cls-2" d="M61.67,80.51c-.69.46-1.43,1.49-2.07,2.56s-.99,2.17-.94,3.32c.55-1.75.84-2.3,1.31-3.1.62-1.03,1.35-1.86,1.98-2.45.3-.28-.12-.45-.29-.34h0Z"/>
    <path id="path3461" class="cls-3" d="M84.58,36.05c.46.91.09,2.03-.82,2.49s-2.03.09-2.49-.82-.09-2.03.82-2.49,2.03-.09,2.49.82Z"/>
    <path id="path3465" class="cls-4" d="M84.58,36.05c.46.91.09,2.03-.82,2.49s-2.03.09-2.49-.82-.09-2.03.82-2.49,2.03-.09,2.49.82Z"/>
  </g>
</svg>