<?xml version="1.0" encoding="UTF-8"?>
<svg id="Layer_1" data-name="Layer 1" xmlns="http://www.w3.org/2000/svg" viewBox="0 0 1080 1080">
  <defs>
    <style>
      .cls-1 {
        fill: #f0512e;
      }

      .cls-2 {
        fill: teal;
      }
    </style>
  </defs>
  <path class="cls-2" d="M739.17,967.01c0,14.68-3.66,28.51-10.13,40.61-14.51,27.15-43.16,45.63-76.11,45.63s-61.6-18.49-76.11-45.63H188.51c-14.51,27.15-43.14,45.62-76.08,45.62-47.63,0-86.24-38.61-86.24-86.24,0-32.94,18.47-61.57,45.62-76.1V189.15c-27.15-14.53-45.62-43.14-45.62-76.08,0-47.63,38.61-86.24,86.24-86.24s86.23,38.61,86.23,86.24c0,32.94-18.47,61.57-45.63,76.1v701.72c15.07,8.06,27.46,20.45,35.49,35.52h388.32c14.53-27.16,43.16-45.63,76.1-45.63s61.57,18.47,76.1,45.63c6.47,12.1,10.14,25.92,10.14,40.61Z"/>
  <path class="cls-1" d="M1053.16,966.8c0,47.74-38.71,86.45-86.45,86.45s-86.45-38.71-86.45-86.45c0-11.85,2.38-23.15,6.71-33.43l-293.04-390.47-54.53,54.55-135.24,135.24c1.65,6.66,2.54,13.64,2.54,20.83,0,47.63-38.62,86.23-86.25,86.23s-86.24-38.6-86.24-86.23,38.61-86.24,86.24-86.24c10.25,0,20.08,1.78,29.21,5.08l132.32-132.34,57.42-57.4,5.31-5.31-209.26-278.84c-4.81.83-9.75,1.26-14.79,1.26-47.74,0-86.45-38.71-86.45-86.45s38.71-86.46,86.45-86.46,86.45,38.71,86.45,86.46c0,12.59-2.69,24.55-7.53,35.34l203.14,270.68,225.04-225.04,56.62-56.64c-2.42-7.93-3.71-16.37-3.71-25.1,0-47.62,38.62-86.23,86.25-86.23s86.24,38.61,86.24,86.23-38.61,86.24-86.24,86.24c-8.74,0-17.19-1.31-25.12-3.72l-56.64,56.63-233.22,233.22,298,397.09c5.42-1.07,11.03-1.63,16.77-1.63,47.74,0,86.45,38.7,86.45,86.45Z"/>
</svg>